<?xml version="1.0" encoding="UTF-8" standalone="no"?>
<!-- Created with Inkscape (http://www.inkscape.org/) -->

<svg
   xmlns:dc="http://purl.org/dc/elements/1.1/"
   xmlns:cc="http://creativecommons.org/ns#"
   xmlns:rdf="http://www.w3.org/1999/02/22-rdf-syntax-ns#"
   xmlns:svg="http://www.w3.org/2000/svg"
   xmlns="http://www.w3.org/2000/svg"
   xmlns:sodipodi="http://sodipodi.sourceforge.net/DTD/sodipodi-0.dtd"
   xmlns:inkscape="http://www.inkscape.org/namespaces/inkscape"
   width="744.09448819"
   height="1052.3622047"
   id="svg55005"
   version="1.1"
   inkscape:version="0.48.3.1 r9886"
   sodipodi:docname="logo_lvee_2012_winter_ver006_inkscape.svg">
  <defs
     id="defs55007" />
  <sodipodi:namedview
     id="base"
     pagecolor="#000000"
     bordercolor="#666666"
     borderopacity="1.0"
     inkscape:pageopacity="0"
     inkscape:pageshadow="2"
     inkscape:zoom="0.49497475"
     inkscape:cx="166.85436"
     inkscape:cy="482.39918"
     inkscape:document-units="px"
     inkscape:current-layer="layer1"
     showgrid="false"
     showguides="true"
     inkscape:guide-bbox="true"
     inkscape:window-width="922"
     inkscape:window-height="725"
     inkscape:window-x="5"
     inkscape:window-y="24"
     inkscape:window-maximized="0">
    <sodipodi:guide
       orientation="0,1"
       position="1040.4571,-24.243661"
       id="guide55035" />
    <sodipodi:guide
       orientation="0,1"
       position="709.12709,1068.7414"
       id="guide55037" />
  </sodipodi:namedview>
  <metadata
     id="metadata55010">
    <rdf:RDF>
      <cc:Work
         rdf:about="">
        <dc:format>image/svg+xml</dc:format>
        <dc:type
           rdf:resource="http://purl.org/dc/dcmitype/StillImage" />
        <dc:title></dc:title>
      </cc:Work>
    </rdf:RDF>
  </metadata>
  <g
     inkscape:label="Layer 1"
     inkscape:groupmode="layer"
     id="layer1">
    <g
       id="g3791">
      <g
         id="g3787">
        <path
           d="m 399.80151,561.11889 c 1.7321,-3.60347 7.59953,-6.37353 29.49616,-17.11113 15.56966,-7.635 17.52484,-4.73263 14.29825,-2.46803 -4.09574,2.87462 -3.65821,2.16362 -29.37784,15.2121 -9.32506,4.73093 -11.67758,5.71846 -14.41657,4.36706 z m 59.15211,2.80577 c 1.3711,-1.10875 8.55389,-5.70565 10.07387,-6.75771 5.0118,-2.41666 5.77017,-1.36377 4.35824,0.68199 -1.9544,2.83175 -9.63571,7.97023 -13.40363,10.40914 -6.45861,4.01404 -8.21046,1.02817 -1.02848,-4.33342 z m 76.30556,-2.89355 c -42.38831,-14.71922 2.24632,1.31439 -41.7823,-15.02538 -10.63476,-3.94674 -7.84225,-9.21007 9.43781,-2.64373 31.42337,11.94073 50.04613,17.37723 50.04613,20.05283 0,1.38916 -2.98851,3.04487 -17.70164,-2.38372 z M 353.31937,540.69969 c 2.88581,-2.13789 35.31636,-19.47134 41.52801,-20.67253 5.5502,-0.82173 3.30684,0.99631 2.50906,2.31153 -2.17241,2.28796 -23.80432,13.10559 -28.9526,15.48162 -12.18115,5.62183 -20.06619,7.97885 -15.08447,2.87938 z m 97.13787,-15.58242 c -46.45694,-21.54181 -66.62084,-33.43204 -56.69527,-33.43204 2.58078,0 71.82074,33.94366 74.87118,36.70427 1.26318,1.14317 2.29669,2.56503 2.29669,3.15971 0,2.30314 -5.06906,0.71058 -20.4726,-6.43194 z m 47.72908,2.64754 c -2.00698,-1.08075 -7.03831,-15.93511 -7.08992,-20.08485 -0.0414,-3.47462 2.79573,-3.618 6.5972,9.31007 2.48299,8.44417 3.09866,12.4089 0.49272,10.77478 z m -41.00776,-17.71855 c -3.67336,-6.64432 -6.4184,-19.30549 -7.09695,-23.68935 -0.80382,-5.1932 2.34967,-3.57344 3.09552,-2.27759 1.63874,2.84716 7.79647,22.03738 7.27285,26.56886 -0.37331,1.60143 -0.65773,1.06962 -1.38658,0.89334 -0.62828,-0.20214 -1.34545,-1.11535 -1.88484,-1.49526 z M 416.2804,480.91797 c -3.66242,-9.30436 -8.57321,-23.14316 -8.57321,-26.70039 0,-3.83643 1.20738,-4.29938 3.75501,-0.41118 2.4245,3.70024 8.53814,21.65968 9.82478,28.38909 1.08862,5.69376 -1.92936,5.23577 -5.00658,-1.27752 z M 214.35022,427.21205 c -2.50861,-1.55854 1.26955,-2.67069 10.5482,-5.78528 52.5147,-17.62772 52.28178,-9.27278 10.52806,1.60747 -7.84493,2.04424 -20.38167,6.2055 -21.07626,4.17781 z m -37.4022,-25.38998 c 0.60433,-1.81301 16.91475,-6.02697 25.59252,-8.5456 43.73916,-12.69485 55.75461,-9.40929 7.04568,3.34769 -12.24523,3.20706 -34.49532,9.76362 -32.6382,5.19791 z m 99.36513,-9.4071 c -10.12585,-8.4599 -38.25911,-41.84133 -38.25911,-45.39622 0,-4.26864 10.39407,5.60596 30.38705,28.86835 16.69176,19.42134 20.23202,26.85433 7.87206,16.52787 z m 15.63263,-22.68167 c 3.65702,-16.76757 11.64054,-42.51548 13.0503,-45.80973 4.89987,-11.44974 4.18994,-0.24731 3.42737,2.70509 -8.59505,33.27681 -11.321,43.79876 -13.8042,47.51486 -2.60984,3.90563 -4.17593,2.95101 -2.67347,-4.41022 z m -149.85705,-0.78082 c 0,-2.87841 51.822,-15.48678 63.3371,-15.41002 12.58867,0.0839 -3.74851,5.28915 -42.00721,13.38401 -16.15906,3.41898 -21.32989,3.91011 -21.32989,2.02601 z m 117.56579,-33.07967 c 1.01421,-6.34248 11.40323,-47.94237 17.09119,-67.45421 4.22155,-14.48155 7.90488,-19.43365 7.04338,-10.00767 -0.71698,7.84473 -16.16779,70.80704 -20.57026,81.37616 -2.42072,5.81146 -4.53291,2.14304 -3.56431,-3.91428 z m -38.16123,-6.97254 c -19.23845,-26.4088 7.46057,12.53245 -22.39869,-32.67094 -12.03172,-18.21459 -13.91193,-25.87613 -7.30222,-20.78592 2.3717,1.82647 2.44293,1.46282 12.41484,17.91352 4.38223,7.22939 11.30107,17.86371 14.68359,23.49368 5.94678,9.89797 8.00447,13.61291 5.82587,13.61291 -0.57208,0 -0.90266,1.61644 -3.22339,-1.56325 z m -103.7173,-9.98021 c -12.48572,-2.45728 -3.59678,-4.06982 0.9823,-4.26868 22.74916,-0.98021 69.85886,-0.13326 74.19205,1.26921 9.08685,2.94103 2.07542,3.72007 -29.49964,3.54646 -19.17707,-0.10545 -33.07319,0.45726 -45.67471,-0.54699 z m 111.32128,-31.32614 c 0,-3.50817 12.46037,-55.82855 16.83503,-70.68935 2.92456,-9.9348 4.91711,-11.95048 4.91711,-4.97422 0,9.25456 -13.40658,67.5506 -17.23945,74.96255 -2.44782,4.73356 -4.51269,5.05433 -4.51269,0.70102 z"
           id="path3857"
           style="fill:#008000;fill-opacity:1"
           inkscape:connector-curvature="0" />
        <path
           d="m 271.64009,537.90599 c 0,-2.36571 7.65889,-19.85566 9.50189,-21.69867 1.53499,-1.53499 2.55831,-1.62832 5.10936,-0.46598 3.44735,1.57071 11.48758,14.35859 9.97735,15.86881 -0.50604,0.50606 -4.81916,2.38769 -9.58471,4.18145 -8.80876,3.3156 -15.00389,4.18865 -15.00389,2.11439 z m 15.89998,-6.9429 c 2.17675,-1.59167 2.18933,-1.93361 0.2117,-5.75792 -1.15637,-2.23616 -2.89506,-4.06574 -3.86376,-4.06574 -1.6876,0 -4.5707,6.17371 -4.5707,9.78746 0,2.21585 5.21054,2.2388 8.22276,0.0362 z m 23.26282,2.22729 c -1.43872,-3.74926 -0.79155,-14.10055 1.03815,-16.60466 1.53496,-2.10072 3.73092,-2.553 14.23949,-2.93275 12.58696,-0.45488 15.3212,0.42183 13.78676,4.42055 -1.47711,3.84927 -21.99067,17.14082 -26.45435,17.14082 -1.00836,0 -2.18289,-0.91078 -2.61005,-2.02396 z m 14.83686,-8.37859 c 3.43257,-2.20267 6.01694,-4.64979 5.74304,-5.43803 -0.74946,-2.15686 -12.12804,-1.61354 -14.43064,0.68905 -2.13742,2.13743 -1.30762,8.75384 1.09787,8.75384 0.74179,0 4.15716,-1.80219 7.58973,-4.00486 z m -72.93926,3.14398 c -4.9477,-2.43838 -7.89825,-7.48757 -8.29039,-14.18714 -0.27533,-4.70394 -0.16658,-4.82245 6.43427,-7.01244 3.69288,-1.2252 9.88265,-2.6 13.75503,-3.05513 6.89999,-0.81096 7.04069,-0.76269 7.04069,2.41495 0,4.0866 -7.01115,21.48905 -9.22289,22.8922 -2.44416,1.55061 -4.99557,1.27426 -9.71671,-1.05244 z m 11.13674,-11.11546 c 4.06249,-9.51944 2.92154,-10.78789 -6.91465,-7.68731 -4.0315,1.27083 -7.59962,3.0132 -7.92915,3.87193 -1.54117,4.01623 6.44029,12.79295 10.47031,11.51354 0.69233,-0.21979 2.6604,-3.68397 4.37349,-7.69816 z m 86.56234,-3.69799 c -0.27034,-0.87968 -0.81381,-4.73113 -1.20772,-8.55876 -0.39392,-3.82765 -1.95619,-11.13626 -3.47173,-16.24138 -3.85569,-12.98791 -3.32948,-13.80057 8.36324,-12.91626 12.10987,0.91587 14.80158,2.33066 14.80158,7.77993 0,5.51489 -3.40597,16.95326 -6.72334,22.57913 -4.36458,7.40184 -10.55781,11.27581 -11.76203,7.35734 z m 11.34434,-18.86903 c 2.54494,-9.07005 1.51331,-12.06974 -4.56927,-13.28626 -6.34227,-1.26844 -6.98076,0.43801 -4.36452,11.66493 1.27324,5.46379 2.58325,10.39398 2.91113,10.95596 1.26506,2.16828 3.97256,-2.02813 6.02266,-9.33463 z m -75.72643,2.85083 c -11.209,-13.8281 -13.09785,-16.8075 -13.09785,-20.66001 0,-5.19592 12.71609,-5.04982 23.12047,0.26565 6.55715,3.34997 8.62487,7.94571 8.77063,19.49386 0.10652,8.43928 -2.21607,13.39997 -6.27382,13.39997 -1.47582,0 -6.25618,-4.77274 -12.51943,-12.49947 z m 13.8237,2.16739 c 1.95338,-3.64995 0.33023,-12.11337 -3.08453,-16.08328 -3.05507,-3.55172 -14.40965,-6.55549 -16.57924,-4.38591 -0.75045,0.75045 0.94275,3.7601 4.5034,8.00483 3.13831,3.74123 6.99723,8.67355 8.57539,10.96072 3.34619,4.84955 4.63661,5.1442 6.58498,1.50364 z m 25.96952,4.89405 c -3.17547,-3.55013 -7.43185,-10.5965 -11.52084,-19.07258 -4.32766,-8.97083 -2.93093,-10.44315 9.3201,-9.8245 13.12868,0.66297 15.04252,2.60711 14.27621,14.50228 -0.96211,14.93446 -6.10698,21.0675 -12.07547,14.3948 z m 6.98451,-13.2994 c 0.28318,-5.88437 -0.13787,-8.35063 -1.69082,-9.90357 -2.45958,-2.45958 -10.83645,-2.82116 -10.85337,-0.46847 -0.006,0.87968 1.86499,5.46079 4.1585,10.18024 5.36622,11.04238 7.86077,11.09944 8.38569,0.1918 z m -93.77061,4.68308 c -1.00578,-1.62738 7.38313,-19.41531 10.2968,-21.83346 3.19845,-2.65447 17.19282,12.66147 14.86792,16.27199 -2.84028,4.4109 -23.10755,8.89004 -25.16472,5.56147 z m 19.43389,-7.25732 c 0.90039,-2.3464 -3.67913,-6.83815 -6.97181,-6.83815 -2.39021,0 -5.34132,3.67344 -5.39664,6.71757 -0.0574,3.15982 11.16022,3.26919 12.36845,0.12058 z m 235.18486,-1.20203 c -14.24784,-3.49411 -13.87766,-7.86746 1.11391,-13.15993 11.31939,-3.99608 15.89408,-3.36851 18.98157,2.60396 1.32968,2.57217 2.53351,6.31481 2.67515,8.31699 0.25474,3.60094 0.17449,3.64291 -7.41969,3.88059 -4.22247,0.13215 -11.1304,-0.60657 -15.35094,-1.64161 z m 15.99071,-3.80093 c 0,-6.32771 -4.58265,-8.34504 -12.60444,-5.54863 -5.41426,1.88742 -5.0856,4.45827 0.76872,6.01316 7.55288,2.00602 11.83572,1.83792 11.83572,-0.46453 z m -48.73322,-0.45218 c -6.12026,-3.84451 -14.17365,-12.36033 -17.26082,-18.25189 -1.64899,-3.14695 -1.54431,-3.73472 1.25327,-7.03746 1.67889,-1.98204 6.22235,-5.30568 10.09659,-7.38586 8.80778,-4.72915 10.4678,-3.71522 11.6964,7.14414 0.48519,4.28854 1.99051,11.3323 3.34517,15.65281 1.35465,4.32051 2.47043,9.15101 2.47952,10.73444 0.0232,4.05223 -4.30425,3.7331 -11.61013,-0.85618 z m 2.93196,-6.50116 c 0.7563,-1.84616 -3.27695,-19.25799 -4.74266,-20.47442 -2.60881,-2.16511 -10.2182,4.97724 -9.08995,8.53205 1.88339,5.93406 12.52889,15.12482 13.83261,11.94237 z m 64.99432,-2.60017 c 0,-7.63933 2.8846,-15.31335 5.75616,-15.31335 3.74094,0 9.24229,3.68126 14.60371,9.77216 2.91415,3.31063 5.09646,6.64074 4.84959,7.40024 -0.53889,1.65783 -12.19207,4.28439 -19.77143,4.45635 l -5.43803,0.12338 0,-6.43878 z m 15.15586,-0.3594 c 1.05444,-1.27052 0.459,-2.70406 -2.44276,-5.88109 -3.1448,-3.4431 -4.17607,-3.91971 -5.71601,-2.64168 -1.90598,1.58182 -2.58702,7.78866 -1.02591,9.34977 1.48458,1.4846 7.73318,0.92196 9.18468,-0.827 z m -181.492,-5.34762 c -0.70579,-1.85638 -1.28326,-4.78006 -1.28326,-6.49706 0,-1.717 -1.43948,-6.10572 -3.19884,-9.75271 -3.92802,-8.14239 -3.96354,-9.4473 -0.31989,-11.75476 5.03661,-3.18961 10.62582,-3.74128 13.07641,-1.2907 1.81857,1.81857 2.11667,4.0894 1.73044,13.18217 -0.49466,11.64574 -2.77739,18.34356 -6.49587,19.05967 -1.44741,0.27874 -2.67446,-0.75164 -3.50899,-2.94661 z m 6.12602,-20.4824 c -0.27756,-2.86545 -1.1017,-3.94227 -3.25078,-4.24749 -3.23284,-0.45914 -3.32782,-0.11792 -1.71647,6.16679 0.63152,2.46311 1.57497,6.20576 2.09655,8.317 l 0.94833,3.83861 1.14709,-5.11815 c 0.63091,-2.81498 0.97978,-6.84553 0.77528,-8.95676 z m -70.10663,16.62819 c -16.35384,-10.84329 -17.91352,-12.11896 -17.91352,-14.6517 0,-3.3404 3.69258,-5.1635 13.24772,-6.54067 14.0111,-2.0194 18.74073,1.54853 18.74073,14.13761 0,7.30383 -1.80987,12.87087 -4.12683,12.69387 -0.8971,-0.0685 -5.37375,-2.60614 -9.9481,-5.63911 z m 10.21673,-7.35155 c -0.0108,-2.28717 -0.51646,-4.94272 -1.12376,-5.90124 -2.31953,-3.66106 -19.40591,-4.52638 -19.27698,-0.97627 0.065,1.79075 15.12766,10.87867 18.18114,10.96945 1.69073,0.0503 2.23439,-0.952 2.2196,-4.09194 z m 27.46019,8.65111 c -6.21382,-6.58856 -15.92477,-20.44462 -15.92477,-22.72222 0,-4.77225 20.87899,-6.22358 25.34109,-1.76149 2.74852,2.74853 3.52789,16.52482 1.31093,23.17247 -2.26699,6.79769 -5.21321,7.15782 -10.72725,1.31124 z m 7.10691,-9.72738 c 0,-2.79604 -0.84919,-7.11612 -1.88709,-9.60016 -1.74245,-4.17027 -2.25653,-4.48587 -6.70694,-4.11741 -3.07452,0.25455 -4.95319,1.1045 -5.18813,2.34719 -0.46428,2.45586 11.06617,18.1327 12.62717,17.16794 0.63524,-0.3926 1.15499,-3.0015 1.15499,-5.79756 z m 136.06538,7.22473 c -7.61108,-7.85799 -9.39245,-12.40635 -6.70896,-17.12991 2.9469,-5.18723 10.70376,-10.6644 15.4191,-10.88753 l 4.29058,-0.20304 0.95464,12.15561 c 0.52505,6.68558 0.6337,14.60272 0.24147,17.59364 -0.63467,4.83971 -1.0837,5.43803 -4.08105,5.43803 -2.39893,0 -5.30934,-2.00442 -10.11578,-6.9668 z m 8.79923,-6.58146 c -0.62144,-10.76233 -1.71776,-15.8811 -3.40136,-15.8811 -2.05849,0 -8.39136,5.8113 -8.39136,7.70025 0,3.7944 8.49221,15.70259 10.67294,14.96613 0.92442,-0.31219 1.34603,-2.86692 1.11978,-6.78528 z m -231.2334,5.19437 c -2.81498,-1.01413 -5.2621,-1.85254 -5.43804,-1.86314 -0.17593,-0.0106 -0.3212,-1.3148 -0.32281,-2.89823 -0.002,-1.91798 3.19059,-5.92281 9.56448,-11.99799 10.44184,-9.95246 14.07236,-11.8111 16.0076,-8.19509 1.89798,3.54642 -3.11757,20.45852 -7.12697,24.0317 -3.72962,3.32384 -5.63474,3.46242 -12.68426,0.92275 z m 11.46774,-7.38732 c 1.06159,-1.62022 2.29843,-4.78707 2.74851,-7.03746 1.11976,-5.59884 -1.23524,-5.28381 -8.45833,1.13148 -5.53004,4.91159 -5.65961,5.18794 -3.27417,6.9829 3.57302,2.68855 6.76766,2.3056 8.98399,-1.07692 z m 283.26303,1.97146 c -8.34758,-6.99055 -11.2073,-11.15919 -9.10056,-13.26594 1.80115,-1.80115 17.76731,-6.23228 22.45602,-6.23228 2.94861,0 3.97114,0.86021 5.56933,4.68523 1.20823,2.89169 1.65356,6.30597 1.16333,8.91909 -1.02277,5.45186 -6.52988,11.99062 -10.08283,11.9717 -1.52087,-0.008 -6.02326,-2.74312 -10.00529,-6.0778 z m 13.83105,-3.36899 c 2.83139,-5.93747 1.51823,-11.01108 -2.84991,-11.01108 -6.57421,0 -14.75895,2.79708 -14.35299,4.90503 0.46483,2.41364 10.68595,10.44942 13.29117,10.44942 1.01229,0 2.77258,-1.95452 3.91173,-4.34337 z m -52.92138,5.30302 c -4.12041,-4.50626 -6.84105,-10.77437 -7.65329,-17.63251 -0.65407,-5.52253 -0.31393,-6.86549 2.75935,-10.89476 7.93807,-10.40736 19.38752,-15.23278 22.47132,-9.47064 1.08609,2.02939 0.83735,4.43202 -1.09286,10.55618 -1.37445,4.36083 -3.51411,11.90305 -4.7548,16.76049 -2.05571,8.04838 -5.32406,13.5602 -8.04079,13.5602 -0.58106,0 -2.2411,-1.29553 -3.68893,-2.87896 z m 8.093,-17.27034 c 1.61032,-6.15965 3.31043,-12.4949 3.778,-14.07833 1.39532,-4.72526 -3.88845,-3.60386 -10.03527,2.12983 -4.6904,4.37516 -5.35241,5.66802 -5.23306,10.21981 0.0932,3.5538 1.24734,6.66721 3.62916,9.78993 1.92088,2.5184 3.81668,4.25473 4.2129,3.85852 0.39621,-0.39622 2.03793,-5.7601 3.64827,-11.91976 z m -85.69751,9.89959 c -4.62316,-4.05919 -12.33583,-17.7332 -12.33583,-21.87054 0,-5.03784 13.01605,-8.75441 16.34265,-4.66645 0.71585,0.87968 1.63172,6.20576 2.03526,11.83572 0.40354,5.62997 0.89598,11.90747 1.09431,13.95 0.50251,5.17502 -1.81962,5.41947 -7.13639,0.75127 z m -0.27424,-15.27289 c -0.79923,-7.06413 -1.17091,-7.83816 -3.59748,-7.49184 -2.14341,0.30592 -2.62565,1.14308 -2.31895,4.02565 0.35665,3.35197 5.44431,12.7077 6.394,11.75799 0.22756,-0.22754 0.0127,-3.95885 -0.47757,-8.2918 z m 19.38134,0.73323 c -10.26499,-10.265 -9.51622,-16.4502 3.00919,-24.85717 5.48418,-3.68093 9.29252,-5.37526 11.50408,-5.11815 3.09639,0.35999 3.2925,0.78998 3.09307,6.78204 -0.29202,8.77367 -6.80104,28.02739 -9.65305,28.55381 -1.25518,0.23167 -4.64755,-2.0548 -7.95329,-5.36053 z m 8.99392,-11.74122 c 3.52095,-10.6226 3.66045,-12.09183 1.14812,-12.09183 -2.94913,0 -12.15561,9.87084 -12.15561,13.03279 0,3.05677 4.87122,9.01492 6.83513,8.36028 0.67358,-0.22453 2.55115,-4.41009 4.17236,-9.30124 z m -160.07361,10.65966 c -4.22247,-2.19764 -11.13197,-5.19363 -15.35444,-6.65775 -9.75522,-3.38257 -10.26819,-6.29695 -1.91931,-10.90444 4.66751,-2.57585 8.01807,-3.27666 17.69261,-3.70064 8.06871,-0.3536 12.42071,-0.0366 13.43514,0.97866 1.57194,1.57323 1.7406,17.05582 0.2374,21.79203 -1.1554,3.64032 -4.98774,3.23024 -14.0914,-1.50786 z m 9.35042,-9.6509 c 0.34656,-4.78126 0.0131,-5.57532 -2.78905,-6.64068 -4.44347,-1.6894 -18.71697,0.21982 -18.71697,2.50358 0,1.63307 16.72421,10.21784 19.19307,9.85207 1.28439,-0.19028 2.04953,-2.08082 2.31295,-5.71497 z m 28.08468,3.96249 c -3.18029,-2.57897 -8.29279,-5.61639 -11.3611,-6.74982 -7.24579,-2.67657 -7.90598,-5.72675 -1.68399,-7.78019 5.45384,-1.79992 17.94218,-0.76539 24.66403,2.04318 4.10583,1.71553 4.33286,2.1219 3.62439,6.48767 -0.76942,4.74139 -5.18782,10.68821 -7.94118,10.68821 -0.83588,0 -4.12185,-2.11007 -7.30215,-4.68905 z m 10.32078,-5.96943 c 0.5283,-2.72394 -5.10296,-4.95227 -11.21679,-4.43856 l -4.55064,0.38236 6.39769,3.45564 c 6.94996,3.75394 8.73598,3.86841 9.36974,0.60056 z m 191.73089,4.68731 c -1.72078,-1.72078 -0.74807,-7.63572 2.35014,-14.29095 l 3.17817,-6.82699 4.80644,2.89814 c 10.23242,6.16982 15.76148,10.68037 15.39903,12.56237 -0.70578,3.66487 -22.85662,8.53459 -25.73378,5.65743 z m 12.11378,-4.46766 c 2.72069,-0.81514 4.94672,-2.23983 4.94672,-3.16599 0,-1.42469 -6.1248,-5.58824 -8.2206,-5.58824 -1.2937,0 -4.67113,7.7657 -3.91179,8.99435 0.96609,1.56316 1.19209,1.55561 7.18567,-0.24012 z m -63.32783,1.39561 c -7.3457,-5.77813 -10.75425,-17.94679 -6.28026,-22.42079 3.40834,-3.40833 17.79071,-9.7239 21.08135,-9.25721 5.30471,0.75234 4.50992,7.65772 -2.47057,21.46531 -3.36244,6.65103 -6.73589,12.28052 -7.49655,12.50999 -0.76066,0.22947 -2.93594,-0.80431 -4.83397,-2.2973 z m 7.42881,-14.9399 c 6.82683,-12.8565 6.24591,-14.2271 -3.42942,-8.09119 -9.07104,5.75268 -10.06361,9.36287 -4.50511,16.38589 1.83102,2.31345 2.88871,1.20775 7.93453,-8.2947 z m -61.35009,2.30509 c -1.40749,-0.59059 -3.90394,-2.52191 -5.54766,-4.29183 -3.57288,-3.84721 -2.77959,-6.05664 4.45546,-12.4091 13.39117,-11.7576 30.59953,-11.96885 19.2879,-0.23677 -2.49659,2.5894 -6.21271,7.58681 -8.25803,11.10537 -3.85431,6.63057 -5.59732,7.65352 -9.93767,5.83233 z m 12.11161,-19.0226 c -1.32727,-0.50066 -10.30373,5.12321 -12.60694,7.8984 -1.40817,1.69673 -1.42992,2.46373 -0.11481,4.04833 1.40591,1.69403 2.43323,1.05352 7.69599,-4.79827 3.34041,-3.71429 5.60201,-6.9311 5.02576,-7.14846 z m 68.67072,3.44684 c -7.51087,-8.29977 -10.00889,-13.47677 -7.30823,-15.14586 4.57534,-2.82771 29.84565,7.27534 30.55113,12.21434 0.45609,3.19299 -6.64555,9.12956 -12.26596,10.25365 -3.27195,0.65439 -4.49979,-0.16464 -10.97694,-7.32213 z m 13.83047,-1.0517 c 2.93356,-3.24153 1.96,-4.53324 -5.2746,-6.99832 -10.53669,-3.5902 -11.84397,-2.39003 -5.39595,4.95386 4.47946,5.10182 7.39769,5.66094 10.67055,2.04446 z m -60.45084,2.79833 c -3.55079,-5.03981 -7.93144,-13.97087 -7.93144,-16.17025 0,-6.87905 27.72957,-15.35356 35.91117,-10.9749 3.70532,1.98304 3.0206,4.42593 -2.45641,8.7638 -2.71225,2.14814 -7.43119,7.23471 -10.48656,11.30348 -8.944,11.91056 -10.96249,12.86068 -15.03676,7.07787 z m 12.41456,-12.96912 c 3.58836,-4.14209 6.52429,-8.24798 6.52429,-9.12418 0,-3.97058 -18.19904,2.58579 -18.9865,6.84006 -0.59492,3.21414 2.29729,9.81521 4.30045,9.81521 0.90061,0 4.5734,-3.38898 8.16176,-7.53109 z M 361.28552,363.50183 c -7.59623,-3.76 -17.07103,-12.92266 -16.4937,-15.95033 0.58738,-3.08032 5.06364,-3.63103 9.7626,-1.2011 2.06591,1.06832 7.0011,2.18598 10.96709,2.48371 10.97966,0.8242 13.05887,3.77645 9.18665,13.04401 -2.23457,5.34807 -5.17887,5.70423 -13.42264,1.62371 z m 8.5854,-4.92401 c 0.26679,-1.38537 -2.04536,-2.73739 -7.98242,-4.66767 -4.59691,-1.49457 -8.35801,-2.24801 -8.35801,-1.67433 0,1.70854 11.91269,9.07265 14.02004,8.66681 1.06964,-0.206 2.11381,-1.25216 2.32039,-2.32481 z m 19.63223,0.59462 c -5.82517,-7.40551 -4.61767,-11.82832 3.91736,-14.3484 3.07487,-0.9079 8.12461,-3.65591 11.22166,-6.1067 3.09704,-2.45077 6.25105,-4.25216 7.00891,-4.00306 4.48495,1.47415 -0.0179,12.69047 -9.15466,22.8038 -5.2984,5.86469 -9.2824,6.37195 -12.99327,1.65436 z m 9.53335,-4.08145 c 2.90037,-2.42738 7.44112,-9.18861 6.68126,-9.94846 -0.26302,-0.26304 -3.04405,1.22378 -6.18004,3.30403 -3.13599,2.08026 -6.23723,3.96338 -6.89165,4.18473 -1.71068,0.57859 0.15416,4.73283 2.10935,4.69889 0.90177,-0.0156 2.82826,-1.02328 4.28108,-2.23919 z m -71.78438,-17.08383 c -3.81266,-3.60586 -8.38452,-9.03447 -10.1597,-12.06357 -3.21347,-5.48338 -4.26967,-12.57369 -2.07504,-13.93004 0.63389,-0.39177 5.09628,0.95025 9.91641,2.98227 4.82014,2.03202 10.77915,4.08711 13.24226,4.56687 10.00886,1.94951 12.79537,3.33759 12.79537,6.37395 0,4.39701 -11.4914,18.62663 -15.04228,18.62663 -0.95969,0 -4.86435,-2.95026 -8.67702,-6.55611 z m 13.42463,-4.53637 c 1.47753,-1.87839 2.4916,-4.0376 2.25349,-4.79826 -0.49941,-1.59536 -15.47244,-6.90829 -19.8611,-7.04739 -2.94621,-0.0934 -2.94732,-0.0867 -0.63977,3.87019 3.07836,5.27866 10.12865,11.39071 13.13926,11.39071 1.33192,0 3.63057,-1.53686 5.10812,-3.41525 z m 29.48773,6.50768 c -12.10025,-6.88124 -15.99671,-13.45445 -9.45079,-15.94322 4.18755,-1.5921 28.72247,-4.8246 30.88304,-4.06885 2.31053,0.80818 1.91699,6.49991 -0.87448,12.64787 -5.07342,11.17375 -10.46358,13.10461 -20.55777,7.3642 z m 12.09828,-2.60771 c 2.89903,-1.11246 6.36377,-8.12523 4.79128,-9.69772 -1.71249,-1.71249 -21.01288,0.44354 -21.66672,2.42037 -0.50817,1.53636 5.23243,5.07157 11.16657,6.87665 1.76392,0.53656 3.30398,1.02505 3.42235,1.08554 0.11839,0.0605 1.14731,-0.24769 2.28652,-0.68484 z m 29.48669,-7.75436 c -2.11124,-1.12698 -6.02838,-3.76754 -8.70475,-5.86796 -6.57838,-5.16269 -5.94881,-8.00337 2.94683,-13.29639 3.8706,-2.30304 10.06613,-6.83923 13.76785,-10.08039 9.01148,-7.89035 11.18993,-7.37551 11.16112,2.63766 -0.0314,10.92055 -8.68103,28.88207 -13.82442,28.70734 -0.82941,-0.0282 -3.2354,-0.97329 -5.34663,-2.10026 z m 9.33699,-9.68423 c 3.08549,-5.11551 5.90655,-13.65267 4.85796,-14.70127 -1.16089,-1.16088 -18.67333,11.18605 -18.67333,13.1654 0,2.31706 5.03976,5.69437 8.49734,5.69437 1.80247,0 3.70898,-1.49083 5.31803,-4.1585 z m -80.61255,-9.02507 c -14.01919,-11.42814 -13.10226,-15.84432 3.52626,-16.98349 13.71506,-0.93958 21.55834,0.5523 22.08348,4.20051 0.48586,3.37536 -2.75353,10.03876 -7.18068,14.7706 -4.98456,5.32761 -10.13697,4.7719 -18.42906,-1.98762 z m 16.84537,-2.41215 c 5.15117,-5.52912 3.65395,-6.99864 -7.94019,-7.79333 -5.80201,-0.39768 -10.81982,-0.45234 -11.15069,-0.12146 -2.04196,2.04196 9.45948,10.64761 14.29261,10.69409 1.20415,0.0116 3.36337,-1.23911 4.79827,-2.7793 z m 27.21986,-1.18297 c -6.00342,-2.97162 -10.77362,-8.12428 -9.71433,-10.49314 0.99319,-2.22103 25.1183,-13.74534 29.41597,-14.0517 4.92292,-0.35093 5.40661,3.39809 1.71274,13.27538 -5.17099,13.82711 -10.5396,16.65238 -21.41438,11.26946 z m 12.67555,-5.81457 c 3.88685,-4.42585 6.53915,-10.86517 5.07737,-12.32694 -0.9579,-0.9579 -2.02706,-0.769 -3.62762,0.64092 -1.24818,1.09951 -5.29233,3.51393 -8.98699,5.36538 -3.69467,1.85144 -6.71757,4.14833 -6.71757,5.10419 0,0.95587 1.84436,2.63119 4.09858,3.72294 4.3519,2.10769 6.58879,1.55564 10.15623,-2.50649 z m -80.01604,-1.4996 c -0.36071,-0.58364 -1.29962,-5.04603 -2.08646,-9.91641 -1.60711,-9.94775 -0.65472,-21.75299 1.83194,-22.7072 2.25179,-0.8641 11.10339,3.29589 14.04149,6.59908 3.14234,3.53281 2.18844,8.34986 -3.75976,18.98623 -3.07378,5.49644 -5.30754,8.09949 -6.95042,8.09949 -1.33152,0 -2.71607,-0.47754 -3.07679,-1.06119 z m 8.2603,-13.5324 c 2.8652,-6.47726 2.2441,-9.40714 -2.23238,-10.53066 -4.58519,-1.15081 -5.49479,0.57543 -4.64446,8.81426 0.93756,9.08415 3.35125,9.68658 6.87684,1.7164 z m 36.38856,-2.21705 c -7.39742,-1.70857 -17.27376,-9.27053 -17.27376,-13.2259 0,-4.11513 2.30283,-5.17529 15.35445,-7.06881 20.11136,-2.91774 26.74107,-3.10636 27.63142,-0.78615 1.39337,3.63107 -0.63125,8.19771 -6.21022,14.00752 -8.29982,8.64324 -10.01362,9.26483 -19.50189,7.07334 z m 11.76595,-5.58031 c 3.32097,-2.3261 8.67356,-10.69686 7.55514,-11.81528 -0.442,-0.442 -4.39428,-0.13569 -8.78283,0.6807 -4.38855,0.81639 -10.7142,1.84949 -14.05699,2.29577 -6.47543,0.86451 -7.57865,2.6046 -3.8123,6.0131 5.22288,4.72664 14.43661,6.08996 19.09698,2.82571 z m 35.142,-1.26516 c -4.33513,-4.63428 -7.87826,-9.41253 -7.87363,-10.61833 0.0194,-5.0403 9.87292,-15.24899 13.40884,-13.89213 2.46657,0.94651 7.02389,16.43659 7.39492,25.13489 0.26779,6.27816 0.0117,7.07868 -2.37394,7.41949 -1.90444,0.27208 -4.94277,-2.04316 -10.55619,-8.04392 z m 8.3422,-4.90255 c -0.41665,-3.03984 -1.36854,-7.13402 -2.11531,-9.09816 -1.27518,-3.35397 -1.53152,-3.45638 -4.21462,-1.68373 -4.47224,2.95469 -4.30718,7.03379 0.48469,11.97774 2.30883,2.38212 4.73899,4.33113 5.40035,4.33113 0.68158,0 0.87431,-2.39414 0.44489,-5.52698 z m -88.31868,-15.79036 c -2.51204,-0.71202 -2.49721,-1.17897 0.52136,-16.42901 1.72914,-8.7357 2.95834,-10.57318 5.60413,-8.37738 3.93158,3.26293 13.5079,16.97046 13.5079,19.33521 0,1.313 -1.05199,2.95028 -2.33776,3.6384 -2.89431,1.54899 -14.10548,2.73701 -17.29563,1.83278 z m 13.93973,-6.93645 c 0.97773,-1.582 -5.49347,-8.85279 -7.87922,-8.85279 -1.78628,0 -3.67901,6.92181 -2.44064,8.92554 1.07695,1.74254 9.23348,1.68504 10.31986,-0.0727 z m 35.91107,-1.89032 c -1.55354,-4.04844 5.34849,-24.876 8.24365,-24.876 1.99312,0 13.99997,18.43493 13.99997,21.4951 0,1.75297 -11.70466,5.37519 -17.36909,5.37519 -2.54097,0 -4.40132,-0.76111 -4.87453,-1.99429 z m 13.45852,-5.19851 c 2.08705,-1.88876 2.12179,-2.40469 0.38778,-5.75792 -1.04759,-2.0258 -2.73882,-3.68327 -3.75829,-3.68327 -1.98287,0 -5.75791,6.25008 -5.75791,9.53299 0,2.67435 6.14009,2.61259 9.12842,-0.0918 z m -34.71216,0.54046 c -2.93232,-3.0268 -6.7847,-7.95965 -8.56084,-10.9619 -3.09581,-5.23295 -3.14033,-5.59446 -1.07684,-8.74376 4.39886,-6.71349 14.79548,-8.40934 22.12248,-3.6085 3.41014,2.23441 3.30002,3.9057 -1.18872,18.04253 -3.60033,11.33889 -4.8522,11.92311 -11.29608,5.27163 z m 8.75998,-10.50856 c 1.72246,-7.05739 1.68926,-7.66358 -0.50772,-9.27005 -3.3615,-2.45798 -7.39771,-2.12511 -11.28227,0.93048 -3.76774,2.96371 -3.43277,4.39077 2.9125,12.40813 4.60381,5.817 6.69916,4.85671 8.87749,-4.06856 z"
           id="path2468"
           style="fill:#3b1c05;fill-opacity:1"
           inkscape:connector-curvature="0" />
      </g>
      <g
         id="g3783">
        <path
           d="m 357.27611,764.40615 c 1.39295,-3.46529 5.45289,-13.61542 9.02264,-22.55654 5.52617,-13.84285 9.65561,-21.78319 9.65561,-18.56734 0,1.51519 -14.20446,41.57272 -15.79685,44.54774 -0.84626,1.58193 -2.41076,2.87617 -3.47659,2.87617 -1.61531,0 -1.51661,-1.04712 0.59519,-6.30003 z m 329.60303,3.31592 c 0.33649,-1.64142 0.99821,-5.36361 1.47055,-8.27123 l 0.85841,-5.28715 -2.77986,2.51563 c -4.61886,4.17995 -4.2851,1.6901 0.70616,-5.27151 2.58886,-3.61099 5.86371,-8.80385 7.27763,-11.5392 2.56112,-4.9561 6.28653,-7.12625 4.55372,-2.6527 -1.66888,4.30937 -7.01851,23.5076 -7.85349,28.18487 -0.45545,2.55333 0.69963,0.18755 2.56714,-5.25788 4.95854,-14.45639 6.98062,-16.22256 10.58754,-9.24741 2.56676,4.96371 4.41634,4.52406 8.04733,-1.91288 3.24802,-5.75792 7.79708,-9.33138 10.53934,-8.27887 3.33772,1.28057 2.10246,5.87599 -2.58495,9.61601 -4.43271,3.53705 -5.04601,7.12321 -1.21829,7.12321 1.06874,0 4.73519,-1.56006 8.14774,-3.46637 l 6.20463,-3.4664 -6.22279,6.1191 c -6.97587,6.85929 -11.6268,7.87784 -14.86469,3.25502 -1.5937,-2.27534 -2.39251,-2.54289 -3.88613,-1.30348 -2.18242,1.81135 -5.66791,0.82291 -6.71436,-1.90378 -1.41249,-3.68132 -3.35441,-1.78539 -6.21903,6.07125 -2.43989,6.69075 -3.40544,7.95788 -6.06512,7.95788 -2.57799,0 -3.05021,-0.55259 -2.55148,-2.98411 z m 31.98564,-19.62072 c 2.01444,-2.22633 2.06969,-2.56292 0.30817,-1.88714 -1.17958,0.4526 -2.4704,1.67203 -2.8684,2.70993 -0.99086,2.58248 -0.32905,2.36964 2.56023,-0.82279 z m -705.879575,19.2067 c -0.437266,-1.13988 -0.06574,-6.36198 0.825912,-11.6055 0.891545,-5.24397 1.448014,-10.13056 1.236645,-10.86015 -0.702591,-2.4246 1.696911,-14.49986 3.620393,-18.21964 2.490225,-4.81556 5.813682,-4.82548 5.782249,-0.0137 -0.0099,2.00637 -1.494522,9.91479 -3.291983,17.57465 -4.004838,17.06553 -4.127288,19.89495 -0.861107,19.89495 3.976843,0 10.868132,-2.80991 10.067725,-4.10535 -1.062709,-1.71926 10.65879,-13.72207 12.368689,-12.6655 0.787332,0.48656 1.82331,2.66856 2.302126,4.84886 0.478849,2.17998 1.629272,3.9638 2.556542,3.9638 0.927283,0 4.692632,-3.28275 8.367483,-7.29517 10.382772,-11.33589 13.188227,-9.3682 7.564103,5.30518 -0.655825,1.71143 0.730201,0.88735 3.904739,-2.32065 5.759757,-5.82113 8.260911,-6.22228 10.340459,-1.65794 2.090672,4.58847 3.923802,4.16705 8.457014,-1.94462 3.52464,-4.75178 6.91088,-7.42562 8.010959,-6.32507 0.227484,0.22688 -0.428596,2.77765 -1.457938,5.66768 -3.890913,10.92398 -1.852152,12.87296 4.803185,4.59134 4.62875,-5.75966 6.46082,-6.6018 6.49264,-2.98416 0.008,1.27664 0.54612,3.15177 1.18903,4.16703 0.96191,1.51919 1.88953,1.33258 5.24035,-1.05333 3.37426,-2.40253 3.94262,-3.54225 3.31937,-6.65857 -0.91618,-4.58031 1.47429,-6.48233 3.68917,-2.93553 1.5528,2.48582 1.77973,2.43705 6.57401,-1.41612 8.57775,-6.89305 11.0386,-0.64655 3.17417,8.05824 -4.00206,4.43005 -4.3735,5.36969 -2.67839,6.77643 1.5995,1.3278 3.11044,0.96435 8.06658,-1.94031 8.28752,-4.85674 8.93517,-3.2983 1.03712,2.49564 -6.89196,5.05479 -11.56686,6.0095 -13.39888,2.73567 -0.99052,-1.7701 -1.46484,-1.68213 -3.58734,0.66296 -1.34539,1.48658 -3.05456,2.70304 -3.79805,2.70304 -0.74349,0 0.0209,-1.4619 1.69977,-3.24855 1.78709,-1.90222 2.71961,-4.11352 2.25085,-5.33569 -0.67221,-1.75171 -1.68215,-1.44863 -6.28787,1.88795 -4.33393,3.13939 -6.01253,3.69357 -7.98805,2.636 -1.37565,-0.73642 -2.50417,-2.06347 -2.5075,-2.94979 -0.003,-0.88636 -1.824115,0.32878 -4.04615,2.69938 -4.490574,4.79111 -7.585028,5.49729 -8.716717,1.98927 -0.411833,-1.27645 -1.005512,-3.15625 -1.319328,-4.17775 -0.43196,-1.40553 -1.396093,-1.0834 -3.969314,1.32661 l -3.398754,3.18309 -2.916553,-3.64793 c -1.604113,-2.00586 -3.519069,-3.64726 -4.25549,-3.64726 -0.736406,0 -3.670165,2.38756 -6.519446,5.30525 -5.863765,6.00507 -9.420786,7.02685 -8.080826,2.32126 2.977806,-10.45769 2.88997,-10.58972 -3.260382,-4.91191 -6.56316,6.0593 -9.980735,6.60281 -12.111076,1.92745 -0.830932,-1.82353 -2.066939,-3.31584 -2.746636,-3.31584 -2.64995,0 -6.959581,4.79904 -6.959581,7.74985 0,2.43332 -1.15068,3.50782 -5.305365,4.95369 -7.070843,2.46081 -12.491728,2.38616 -13.478557,-0.18556 z M 124.56633,747.3801 c 1.23634,-1.88702 1.90544,-3.77316 1.48712,-4.19208 -1.08726,-1.08714 -6.08284,3.70819 -6.08284,5.83907 0,2.84654 2.15828,2.0732 4.59572,-1.64699 z m 36.66968,19.67859 c 0.1734,-1.27651 -0.71522,-5.60364 -1.97524,-9.61573 -1.25978,-4.01239 -2.63814,-12.39433 -3.06323,-18.6273 -0.6608,-9.68929 -0.43633,-11.66838 1.54907,-13.65403 1.27722,-1.27729 2.85629,-2.1441 3.50945,-1.92646 0.65297,0.21787 1.34199,7.55579 1.53073,16.3072 0.18884,8.75094 0.97239,16.99177 1.74109,18.31297 1.19359,2.05148 2.04963,0.98773 5.87009,-7.2951 2.45997,-5.33323 4.81245,-11.77924 5.22773,-14.32454 0.50485,-3.09485 1.57393,-4.78589 3.22772,-5.10417 2.1923,-0.4221 2.36511,0.10346 1.52328,4.62782 -1.05853,5.68794 -10.73893,27.68819 -13.77209,31.29934 -1.0721,1.27656 -2.78978,2.32131 -3.81693,2.32131 -1.02699,0 -1.7254,-1.04475 -1.55167,-2.32131 z m 237.17239,0.21885 c -1.41575,-1.70608 -1.455,-4.69222 -0.20865,-15.8482 1.84684,-16.52486 4.01853,-22.22545 9.8384,-25.81958 5.76699,-3.56151 13.67489,-3.17776 13.67489,0.66396 0,2.19406 -0.74138,2.57856 -4.28577,2.22381 -8.70745,-0.87158 -9.48585,6.6e-4 -12.99585,14.56317 l -0.84905,3.52372 5.83932,-2.1002 c 6.17151,-2.219 10.30216,-1.62592 10.30216,1.47894 0,1.30679 -2.20311,2.04931 -7.34206,2.4758 -4.03794,0.33476 -7.84763,1.15437 -8.46603,1.8219 -0.61906,0.66755 -1.52956,4.04828 -2.02406,7.51367 l -0.89959,6.30003 4.39219,-0.0571 c 2.41542,-0.0315 6.62993,-0.85701 9.36551,-1.83327 3.89721,-1.391 4.97404,-1.41833 4.97404,-0.12549 0,1.73319 -13.1273,7.32252 -17.19843,7.32252 -1.30481,0 -3.1575,-0.94631 -4.11702,-2.10243 l 0,4e-5 z m 185.68714,0 c -1.41554,-1.70608 -1.45477,-4.69222 -0.20831,-15.8482 1.84687,-16.52486 4.01888,-22.22545 9.83866,-25.81958 5.76676,-3.56151 13.67457,-3.17776 13.67457,0.66396 0,2.19406 -0.74126,2.57856 -4.28542,2.22381 -8.70778,-0.87158 -9.48592,6.6e-4 -12.99612,14.56317 l -0.84941,3.52372 5.84017,-2.1002 c 6.17116,-2.219 10.30131,-1.62592 10.30131,1.47894 0,1.30679 -2.20261,2.04931 -7.34133,2.4758 -4.03798,0.33476 -7.84792,1.15437 -8.46651,1.8219 -0.61843,0.66755 -1.5295,4.04828 -2.02411,7.51367 l -0.89925,6.30003 4.39184,-0.0571 c 2.41542,-0.0315 6.63014,-0.85701 9.3657,-1.83327 3.89741,-1.391 4.97366,-1.41833 4.97366,-0.12549 0,1.73319 -13.12685,7.32252 -17.19814,7.32252 -1.30484,0 -3.15743,-0.94631 -4.11731,-2.10243 l 0,4e-5 z m -128.01531,-3.86317 c -0.95734,-3.8129 0.20093,-7.81288 1.94927,-6.73246 0.65297,0.40395 1.44895,-1.0506 1.76896,-3.23151 0.32027,-2.1812 0.12517,-3.96536 -0.43404,-3.96536 -0.5587,0 -3.77426,2.38725 -7.14553,5.30498 -3.37164,2.91813 -6.42063,5.30564 -6.77574,5.30564 -0.35531,0 -2.05751,-1.52321 -3.78283,-3.38474 -3.08485,-3.3289 -3.17676,-3.34299 -5.57372,-0.8433 -5.19822,5.42232 -12.3483,6.8512 -10.52671,2.10416 0.86892,-2.26448 -0.75728,-2.42492 -2.8963,-0.28586 -0.86321,0.8632 -1.90073,1.23887 -2.30509,0.83406 -0.95306,-0.95303 17.67246,-18.2374 21.58667,-20.03222 5.54613,-2.54305 4.97072,0.53237 -1.14393,6.11497 -3.3409,3.04965 -6.9132,6.68748 -7.93914,8.08359 -1.7182,2.3384 -1.65517,2.4264 0.80266,1.11727 1.46729,-0.78102 3.79785,-2.66955 5.17938,-4.19609 3.37411,-3.72853 6.07973,-3.52277 6.07973,0.46224 0,5.56014 2.1972,5.00201 10.47257,-2.65965 4.6947,-4.34638 8.6465,-7.02609 9.54409,-6.47123 1.56845,0.96915 1.02098,10.57841 -0.90271,15.84076 -1.61499,4.41758 5.54394,-2.75119 11.58919,-11.60549 l 5.20655,-7.62632 -6.01747,0 c -5.13389,0 -6.01808,-0.39006 -6.01808,-2.65285 0,-2.32709 0.88419,-2.65276 7.20561,-2.65276 6.04053,0 7.34166,-0.42875 8.04732,-2.6527 0.8318,-2.62096 3.31581,-3.73844 3.31581,-1.49193 0,0.6384 0.3731,3.02569 0.82889,5.3053 0.64444,3.22209 0.36943,4.14494 -1.23582,4.14494 -1.48999,0 -2.68534,2.78965 -4.29401,10.01945 -1.226,5.5105 -1.86098,10.38713 -1.41144,10.83685 1.24593,1.24619 7.39792,-5.0204 10.0999,-10.28923 2.55111,-4.97256 8.05662,-8.82462 10.47565,-7.32946 2.78261,1.71988 1.4226,5.95749 -3.05982,9.53433 -4.64414,3.70576 -5.00521,7.12321 -0.75261,7.12321 3.14346,0 10.05862,-5.86566 12.21224,-10.35871 2.24254,-4.6793 5.80403,-5.17538 9.85228,-1.37195 2.88174,2.70736 3.19625,3.85519 2.48611,9.07266 l -0.8128,5.9738 9.26906,-9.61589 c 5.09772,-5.2891 9.85891,-9.61629 10.58033,-9.61629 3.02438,0 2.85374,3.59373 -0.59873,12.6005 -0.65544,1.71093 0.73036,0.88686 3.90488,-2.32121 5.95259,-6.01587 8.06561,-6.20965 10.76567,-0.98853 2.00822,3.88317 2.14568,3.92962 5.38067,1.80969 5.2939,-3.46809 5.11396,-1.24751 -0.28256,3.49068 l -4.93512,4.33303 -2.78578,-3.4936 c -1.53167,-1.92114 -3.38816,-3.49338 -4.12454,-3.49338 -0.73622,0 -3.67024,2.38749 -6.51921,5.30529 -5.86396,6.0051 -9.42081,7.02684 -8.08102,2.32128 0.46757,-1.6414 1.22567,-4.77501 1.68529,-6.96325 0.81938,-3.9035 0.69789,-3.8506 -6.40168,2.81191 -6.65134,6.24074 -12.38112,9.58887 -13.86643,8.1036 -0.3302,-0.33009 0.01,-2.21393 0.7629,-4.1864 3.62679,-9.53898 -0.53774,-14.78768 -6.09735,-7.68386 -3.85299,4.92288 -11.06156,9.57597 -14.83654,9.57597 -1.51393,0 -3.67506,-1.31733 -4.8025,-2.92691 l -2.05057,-2.92717 -4.56934,4.4288 c -6.47703,6.27796 -9.27185,4.94992 -8.4122,-3.99642 l 0.64411,-6.70341 -5.45107,5.19047 c -12.99963,12.37738 -13.58012,12.67453 -14.85336,7.60071 z m 41.28565,-15.31302 c 2.01461,-2.22633 2.06968,-2.56292 0.30818,-1.88714 -1.17935,0.4526 -2.47006,1.67203 -2.86814,2.70993 -0.99112,2.58248 -0.32909,2.36964 2.55996,-0.82279 z m -240.32691,15.2468 c -0.43322,-1.12912 -0.46924,-4.42548 -0.0795,-7.3252 l 0.70691,-5.27224 -4.56581,4.00926 c -5.39439,4.73618 -8.74849,5.07424 -11.35798,1.14457 l -1.9019,-2.86472 -2.57051,2.68465 c -1.41352,1.47689 -4.01496,3.43837 -5.78088,4.35916 -2.72003,1.41809 -3.45367,1.34189 -4.7993,-0.49815 -1.40858,-1.92635 -1.77553,-1.94615 -3.24668,-0.174 -0.91213,1.09918 -3.88683,2.66586 -6.61062,3.48197 -6.03273,1.80751 -10.64888,-0.11486 -10.64888,-4.43656 0,-2.23328 -0.35377,-2.51745 -1.59156,-1.27942 -2.50625,2.50622 -7.18883,1.86316 -9.27133,-1.27293 l -1.90229,-2.86472 -2.5701,2.68465 c -5.31129,5.5479 -12.50936,7.06533 -10.66035,2.24731 0.86889,-2.26448 -0.75728,-2.42492 -2.89651,-0.28586 -0.86315,0.8632 -1.90052,1.23887 -2.30498,0.83406 -0.95333,-0.95303 17.67249,-18.2374 21.58674,-20.03222 5.54606,-2.54305 4.97062,0.53237 -1.14399,6.11497 -3.34091,3.04965 -6.9134,6.68748 -7.93913,8.08359 -1.71815,2.3384 -1.65506,2.4264 0.80262,1.11727 1.46721,-0.78102 3.79812,-2.66955 5.17936,-4.19609 3.37451,-3.72853 6.0799,-3.52277 6.0799,0.46224 0,1.78054 0.4476,3.5062 0.99455,3.83474 0.54723,0.3282 5.40193,-2.32225 10.7884,-5.89045 5.3866,-3.56788 10.31057,-6.48745 10.94252,-6.48745 3.07162,0 0.51317,4.27052 -4.87736,8.14155 -4.29329,3.08363 -5.91424,5.10939 -5.63692,7.046 0.6419,4.48449 5.27183,3.92906 11.03082,-1.32372 11.7477,-10.71529 20.76951,-17.8426 22.58561,-17.8426 3.22161,0 2.16134,2.33383 -2.76933,6.0946 -2.57952,1.9675 -5.9519,5.3497 -7.49452,7.51593 -2.59596,3.64535 -2.6157,3.83794 -0.2692,2.58187 1.39468,-0.7465 3.66596,-2.60617 5.04733,-4.13271 3.37432,-3.72853 6.07992,-3.52277 6.07992,0.46224 0,1.78054 0.46417,3.52465 1.03176,3.87509 1.63046,1.00762 6.17024,-3.24616 10.77615,-10.09701 l 4.23547,-6.30001 -6.03222,0 c -5.14814,0 -6.03242,-0.38909 -6.03242,-2.65285 0,-2.32709 0.88428,-2.65276 7.20561,-2.65276 6.04076,0 7.34193,-0.42875 8.04751,-2.6527 0.83177,-2.62096 3.31581,-3.73844 3.31581,-1.49193 0,0.6384 0.37317,3.02569 0.8289,5.3053 0.64438,3.22209 0.36937,4.14494 -1.2359,4.14494 -1.48985,0 -2.68539,2.78965 -4.29389,10.01945 -1.22618,5.5105 -1.84976,10.39858 -1.38629,10.86234 0.46371,0.46331 3.75627,-2.02655 7.31733,-5.53398 3.56063,-3.50751 7.08206,-6.00109 7.82516,-5.54174 0.74323,0.45912 1.74325,2.61864 2.22184,4.79896 0.479,2.17998 1.55201,3.96378 2.38476,3.96378 0.83285,0 4.87253,-3.32361 8.97718,-7.38541 7.03825,-6.96468 7.71363,-7.3202 11.86634,-6.24403 6.29746,1.63182 7.67693,4.46599 4.95357,10.1772 -4.05822,8.51076 -14.59155,12.34695 -17.62597,6.41916 l -1.53659,-3.00175 -3.3941,2.67003 c -4.53115,3.56443 -7.35806,3.36556 -9.18559,-0.64592 -0.83099,-1.82352 -1.92801,-3.31588 -2.43737,-3.31588 -0.50965,0 -3.63932,2.38745 -6.95431,5.30564 -6.52897,5.74734 -8.58761,6.43011 -9.80682,3.25249 z m 45.36381,-7.83455 c 3.75698,-3.75792 4.10954,-5.78436 1.19858,-6.90152 -2.56764,-0.98524 -8.55381,4.42829 -8.55381,7.73559 0,3.40671 3.51225,3.00852 7.35523,-0.83407 z m 346.10303,7.56599 c 0.51463,-1.27658 1.25237,-4.54843 1.63968,-7.27061 1.05803,-7.44076 -2.24905,-7.87481 -8.65809,-1.13794 -5.73091,6.02463 -8.32848,6.64545 -12.08636,2.88783 -2.49828,-2.49811 -2.59021,-2.47685 -6.05109,1.40734 -4.05618,4.55229 -7.5437,4.50963 -8.63295,-0.10527 -0.93494,-3.96145 -3.05841,-4.81435 -5.29024,-2.12523 -0.92828,1.11871 -2.25792,2.03367 -2.95429,2.03367 -1.19275,0 10.00848,-14.12859 12.86492,-16.22738 2.34157,-1.72009 3.62796,-1.08286 2.63671,1.30619 -2.12355,5.11738 -3.59081,12.41831 -2.67555,13.31093 0.53408,0.52087 3.16478,-1.58914 5.84636,-4.68961 5.32073,-6.15118 6.7822,-6.86273 6.8131,-3.31583 0.008,1.27663 0.5331,3.12989 1.15954,4.11854 1.52915,2.4134 7.43157,-1.35872 9.77396,-6.24533 2.21633,-4.62476 5.79155,-5.10272 9.82444,-1.31431 2.89894,2.72362 3.19452,3.82427 2.43609,9.07272 l -0.8629,5.97374 9.83797,-9.7079 c 9.44517,-9.32034 10.01358,-9.66225 14.24686,-8.56511 2.42514,0.6282 5.05569,2.16827 5.84491,3.42251 2.23394,3.54736 -2.7376,11.64478 -9.03802,14.72091 -5.80545,2.83406 -8.88609,1.8906 -10.05988,-3.08148 l -0.69868,-2.95966 -3.31034,3.54264 c -5.77022,6.17566 -14.47893,9.59471 -12.60615,4.94914 l 0,-7e-5 z m 29.25102,-7.56599 c 3.7575,-3.75792 4.10943,-5.78436 1.19844,-6.90152 -2.56754,-0.98524 -8.55361,4.42829 -8.55361,7.73559 0,3.40671 3.51208,3.00852 7.35517,-0.83407 z m -362.27393,5.57673 c 0.46761,-1.6414 1.23382,-4.7513 1.70267,-6.91098 l 0.85313,-3.92691 -5.16617,4.25847 c -2.84117,2.34215 -5.68681,4.25814 -6.32338,4.25814 -1.36271,0 11.8178,-14.7304 14.66148,-16.38498 4.34945,-2.53078 4.71031,1.93122 0.94936,11.74301 -0.65554,1.71093 0.73027,0.88686 3.90487,-2.32121 5.95259,-6.01587 8.06551,-6.20965 10.76563,-0.98853 2.00812,3.88317 2.14565,3.92962 5.38074,1.80969 5.29384,-3.46809 5.11392,-1.24751 -0.2827,3.49068 l -4.93501,4.33303 -2.78567,-3.4936 c -1.53193,-1.92114 -3.38827,-3.49338 -4.1248,-3.49338 -0.73612,0 -3.67011,2.38749 -6.51908,5.30529 -5.86388,6.0051 -9.42083,7.02684 -8.08107,2.32128 z M 40.390338,735.63338 c 0,-1.84571 4.811402,-6.04388 6.926825,-6.04388 1.784233,0 1.120954,3.70005 -1.05303,5.87407 -2.609854,2.60965 -5.873795,2.70401 -5.873795,0.16981 z m 234.762112,0 c 0,-1.84571 4.81136,-6.04388 6.92685,-6.04388 1.78427,0 1.12078,3.70005 -1.0532,5.87407 -2.61,2.60965 -5.87365,2.70401 -5.87365,0.16981 z"
           id="path2818-3"
           style="fill:#000000;fill-opacity:1"
           inkscape:connector-curvature="0" />
        <path
           style="fill:#008000;fill-opacity:1"
           d="m 182.26005,698.87614 c -1.3571,-1.6353 -1.35177,-2.62169 0.0276,-5.19967 1.46089,-2.72974 1.31725,-4.0774 -1.01234,-9.49262 -4.08854,-9.50424 -6.6141,-21.96019 -8.72188,-43.01393 -2.39457,-23.91987 -1.39054,-29.30253 6.19808,-33.22672 6.93162,-3.58461 7.17571,-2.77881 6.70473,22.13251 -0.23703,12.54138 0.12343,26.03749 0.80113,29.99126 2.57178,15.00192 4.21333,21.33809 5.24647,20.24848 5.05246,-5.32833 18.17812,-35.53085 20.16511,-46.40012 1.37643,-7.53008 2.01971,-8.70511 5.97576,-10.91431 2.43828,-1.36199 4.72983,-2.17944 5.09224,-1.8169 1.06042,1.06036 -1.03958,15.13483 -2.38221,15.96472 -0.67277,0.41578 -1.22354,1.91054 -1.22354,3.32148 0,3.18687 -10.52585,28.09109 -16.36445,38.71795 -2.38514,4.34116 -4.09869,8.54465 -3.80822,9.34124 0.62069,1.70026 -10.89037,12.36467 -13.346,12.36467 -0.92292,0 -2.43162,-0.90826 -3.35276,-2.01804 z m -61.02006,-2.66008 c -2.73398,-2.73409 -2.63443,-7.11443 0.61238,-26.89417 1.48453,-9.04406 2.34757,-18.35711 1.91792,-20.69575 -1.05826,-5.75849 2.60157,-24.29651 6.46086,-32.72639 4.50419,-9.83836 12.60082,-13.17083 12.60082,-5.18609 0,4.08416 -3.27093,21.5544 -6.66265,35.58677 -4.32999,17.91319 -6.49243,29.55372 -6.49243,34.94712 0,4.83883 0.24925,5.17586 3.82913,5.17586 3.35967,0 15.0957,-3.21137 21.36285,-5.84563 1.77765,-0.74729 2.17067,-0.0781 2.17067,3.69725 0,5.78095 -2.24472,7.81419 -12.23436,11.08232 -10.09278,3.30186 -20.73415,3.68958 -23.56519,0.85871 z m 115.39612,1.25446 c -0.86383,-0.38109 -1.23533,-1.56678 -0.82524,-2.63493 0.46214,-1.20438 0.0596,-1.79677 -1.06062,-1.55954 -5.60721,1.18846 1.52193,-62.64088 7.9023,-70.75223 2.75897,-3.50749 12.49117,-11.86737 16.00467,-13.74773 3.91826,-2.097 19.02149,-3.03964 22.12145,-1.38081 3.24892,1.73892 3.79326,7.46283 1.06437,11.19459 -1.49199,2.04042 -2.19611,2.15155 -4.80138,0.75745 -3.80814,-2.03817 -19.45289,-0.88589 -21.95589,1.61713 -1.50976,1.50961 -6.31303,16.48298 -8.866,27.63819 -1.00051,4.37125 0.59728,4.6249 5.64156,0.89553 2.16108,-1.59776 7.58985,-3.3272 13.1435,-4.18676 8.15999,-1.26287 9.74639,-1.17987 11.52989,0.60349 1.43718,1.43734 1.80534,3.2632 1.20692,5.98753 -0.82499,3.75722 -1.15948,3.92208 -8.07703,3.98433 -15.24318,0.13679 -24.83258,2.81827 -26.08706,7.29413 -0.43945,1.56864 -1.17567,7.44005 -1.63565,13.04746 l -0.83659,10.19506 7.32402,0 c 8.15831,0 22.43227,-3.19984 26.87186,-6.02418 3.08941,-1.96557 4.83938,-0.74378 3.59185,2.50724 -1.03463,2.69573 -8.9038,7.67352 -17.69971,11.1963 -7.03748,2.81839 -21.35232,4.78163 -24.55722,3.36775 z m 67.09102,0 c -0.86378,-0.38109 -1.23512,-1.56678 -0.82508,-2.63493 0.46205,-1.20438 0.0597,-1.79677 -1.06074,-1.55954 -5.60713,1.18846 1.52176,-62.64088 7.90231,-70.75223 2.75903,-3.50749 12.49132,-11.86737 16.00471,-13.74773 3.91825,-2.097 19.02161,-3.03964 22.12144,-1.38081 3.24898,1.73892 3.79338,7.46283 1.06449,11.19459 -1.49199,2.04042 -2.19618,2.15155 -4.80142,0.75745 -3.80812,-2.03817 -19.45291,-0.88589 -21.95604,1.61713 -1.50956,1.50961 -6.31303,16.48298 -8.86603,27.63819 -1.00038,4.37125 0.59739,4.6249 5.64156,0.89553 2.1611,-1.59776 7.58983,-3.3272 13.14352,-4.18676 8.15988,-1.26287 9.74649,-1.17987 11.52983,0.60349 1.43738,1.43734 1.80543,3.2632 1.20719,5.98753 -0.82525,3.75722 -1.15963,3.92208 -8.0772,3.98433 -15.24312,0.13679 -24.83261,2.81827 -26.08704,7.29413 -0.43951,1.56864 -1.17554,7.44005 -1.63572,13.04746 l -0.83633,10.19506 7.32404,0 c 8.15826,0 22.43216,-3.19984 26.8717,-6.02418 3.08938,-1.96557 4.83927,-0.74378 3.5916,2.50724 -1.0343,2.69573 -8.90358,7.67352 -17.6996,11.1963 -7.03721,2.81839 -21.35223,4.78163 -24.55719,3.36775 z m 95.62961,-0.98973 c -6.71516,-2.19696 -7.89297,-3.25006 -7.89297,-7.0555 0,-3.96751 5.61574,-11.58688 21.60401,-29.31195 11.82132,-13.10556 18.87575,-24.4005 17.49189,-28.00671 -2.63012,-6.85351 -22.78491,-9.41438 -27.57171,-3.50275 -1.27362,1.57269 -2.31569,3.64705 -2.31569,4.60956 0,3.54351 -2.57766,3.19327 -4.54851,-0.61805 -2.22708,-4.30659 -1.81595,-12.32284 0.79331,-15.46652 3.70384,-4.46308 9.29502,-6.04766 18.58899,-5.26862 20.77739,1.74204 29.31849,12.51022 22.09946,27.86271 -2.51385,5.34631 -4.31416,7.95278 -14.19551,20.55365 -16.87847,21.52365 -17.60212,22.60023 -16.15862,24.04456 0.8385,0.83893 8.31102,1.63913 17.82289,1.90879 9.41926,0.2669 16.37893,1.00777 16.37893,1.74389 0,7.13215 -28.62075,12.91608 -42.09647,8.50694 z m 130.74112,-1.69224 c 2.31602,-10.04813 8.55695,-48.34561 9.34858,-57.36767 0.718,-8.18293 0.53945,-10.19534 -0.90458,-10.19534 -0.98952,0 -6.95984,4.78416 -13.26736,10.63139 -9.58244,8.88324 -11.46824,10.14755 -11.46824,7.68849 0,-1.61863 1.60013,-5.07102 3.55579,-7.67164 6.97317,-9.27288 25.73855,-30.59907 27.52969,-31.28635 1.00246,-0.38486 3.36235,0.30946 5.24422,1.54253 3.34421,2.19111 3.40085,2.4696 2.50569,12.31304 -1.73325,19.05945 -8.67136,55.03351 -12.85214,66.63837 -1.66384,4.61842 -4.55893,8.25696 -8.06091,10.13111 -2.25142,1.20496 -2.41212,0.96589 -1.63074,-2.42393 z m 40.27544,1.69224 c -6.71508,-2.19696 -7.89307,-3.25006 -7.89307,-7.0555 0,-3.96751 5.61588,-11.58688 21.60414,-29.31195 11.82128,-13.10556 18.87562,-24.4005 17.49177,-28.00671 -2.63004,-6.85351 -22.78482,-9.41438 -27.57163,-3.50275 -1.27363,1.57269 -2.31569,3.64705 -2.31569,4.60956 0,3.54351 -2.57763,3.19327 -4.54853,-0.61805 -2.22705,-4.30659 -1.81593,-12.32284 0.79325,-15.46652 3.70397,-4.46308 9.29516,-6.04766 18.58914,-5.26862 20.77734,1.74204 29.31829,12.51022 22.09946,27.86271 -2.51389,5.34631 -4.31421,7.95278 -14.19558,20.55365 -16.87855,21.52365 -17.60208,22.60023 -16.15866,24.04456 0.83863,0.83893 8.31104,1.63913 17.82293,1.90879 9.41932,0.2669 16.37885,1.00777 16.37885,1.74389 0,7.13215 -28.62082,12.91608 -42.09638,8.50694 z m -107.80083,-2.38423 c -6.95686,-4.72321 -9.65023,-10.47291 -10.30414,-21.99792 -1.16636,-20.55294 9.863,-62.35378 15.9077,-60.28982 0.85836,0.29306 1.36019,1.95779 1.11506,3.69934 -0.42744,3.03747 -0.25973,2.9881 4.11633,-1.21271 6.53597,-6.2745 13.39465,-7.00813 19.27322,-2.0616 9.10356,7.66011 11.12265,18.69883 7.34253,40.14306 -2.4626,13.97006 -5.66599,22.64095 -11.75176,31.80942 -8.09988,12.20291 -17.16989,15.70061 -25.69894,9.91023 z m 14.44013,-9.01022 c 1.3744,-0.73569 4.84782,-5.32339 7.71874,-10.19523 13.61211,-23.09856 11.99502,-49.51443 -3.20563,-52.36615 -4.76474,-0.89394 -11.65311,2.00757 -13.53494,5.70079 -3.94584,7.74422 -5.71652,38.22605 -2.8558,49.1641 2.14003,8.18234 6.1339,10.77045 11.87763,7.69649 z"
           id="path3063"
           inkscape:connector-curvature="0" />
      </g>
    </g>
  </g>
</svg>
