<?xml version="1.0" encoding="UTF-8" standalone="no"?>
<!-- Created with Inkscape (http://www.inkscape.org/) -->

<svg
   xmlns:dc="http://purl.org/dc/elements/1.1/"
   xmlns:cc="http://creativecommons.org/ns#"
   xmlns:rdf="http://www.w3.org/1999/02/22-rdf-syntax-ns#"
   xmlns:svg="http://www.w3.org/2000/svg"
   xmlns="http://www.w3.org/2000/svg"
   xmlns:sodipodi="http://sodipodi.sourceforge.net/DTD/sodipodi-0.dtd"
   xmlns:inkscape="http://www.inkscape.org/namespaces/inkscape"
   width="744.09448819"
   height="1052.3622047"
   id="svg3795"
   version="1.1"
   inkscape:version="0.48.2 r9819"
   sodipodi:docname="newbook.svg">
  <defs
     id="defs3797">
    <filter
       color-interpolation-filters="sRGB"
       inkscape:collect="always"
       x="-0.093078762"
       width="1.1861575"
       y="-0.16883115"
       height="1.3376623"
       id="filter15647-0">
      <feGaussianBlur
         inkscape:collect="always"
         stdDeviation="5.8035715"
         id="feGaussianBlur15649-2" />
    </filter>
    <filter
       color-interpolation-filters="sRGB"
       inkscape:collect="always"
       x="-0.14165816"
       width="1.2833163"
       y="-0.13970742"
       height="1.2794148"
       id="filter14635-6">
      <feGaussianBlur
         inkscape:collect="always"
         stdDeviation="16.599332"
         id="feGaussianBlur14637-0" />
    </filter>
  </defs>
  <sodipodi:namedview
     id="base"
     pagecolor="#ffffff"
     bordercolor="#666666"
     borderopacity="1.0"
     inkscape:pageopacity="0.0"
     inkscape:pageshadow="2"
     inkscape:zoom="0.98994949"
     inkscape:cx="375"
     inkscape:cy="513.89116"
     inkscape:document-units="px"
     inkscape:current-layer="layer1"
     showgrid="false"
     inkscape:window-width="1366"
     inkscape:window-height="744"
     inkscape:window-x="0"
     inkscape:window-y="24"
     inkscape:window-maximized="1" />
  <metadata
     id="metadata3800">
    <rdf:RDF>
      <cc:Work
         rdf:about="">
        <dc:format>image/svg+xml</dc:format>
        <dc:type
           rdf:resource="http://purl.org/dc/dcmitype/StillImage" />
        <dc:title></dc:title>
      </cc:Work>
    </rdf:RDF>
  </metadata>
  <g
     inkscape:label="Layer 1"
     inkscape:groupmode="layer"
     id="layer1">
    <path
       sodipodi:type="arc"
       style="opacity:0;fill:#ff0000;fill-rule:evenodd;stroke:#000000;stroke-width:1px;stroke-linecap:butt;stroke-linejoin:miter;stroke-opacity:0.01476016"
       id="path5434"
       sodipodi:cx="464"
       sodipodi:cy="-87.137817"
       sodipodi:rx="51"
       sodipodi:ry="37.5"
       d="m 515,-87.137817 a 51,37.5 0 1 1 -102,0 51,37.5 0 1 1 102,0 z"
       transform="matrix(1.5063189,0,0,1.1895053,-525.51364,638.45363)"
       inkscape:export-filename="/usr/home/zag/Work/perl/yapc/byperl2/pod6_pres/src/pipes.png"
       inkscape:export-xdpi="90"
       inkscape:export-ydpi="90" />
    <path
       sodipodi:type="star"
       style="fill:#000000;fill-opacity:1;fill-rule:nonzero;stroke:#000000;stroke-width:6.37171316;stroke-linecap:square;stroke-linejoin:miter;stroke-miterlimit:4;stroke-opacity:1;stroke-dasharray:none;stroke-dashoffset:0;marker:none;visibility:visible;display:inline;overflow:visible;filter:url(#filter14635-6);enable-background:accumulate"
       id="path13588-9"
       sodipodi:sides="50"
       sodipodi:cx="-603.23578"
       sodipodi:cy="534.51593"
       sodipodi:r1="138.32973"
       sodipodi:r2="124.08177"
       sodipodi:arg1="0.22082877"
       sodipodi:arg2="0.28366062"
       inkscape:flatsided="false"
       inkscape:rounded="0"
       inkscape:randomized="0"
       d="m -468.26522,564.81544 -15.84742,4.42748 10.9856,12.2499 -16.27737,2.40636 9.36366,13.53016 -16.45062,0.34729 7.59405,14.59705 -16.36443,-1.71725 5.70467,15.43373 -16.02015,-3.75472 3.72532,16.02702 -15.42324,-5.73298 1.68723,16.36755 -14.58309,-7.62081 -0.37747,16.44995 -13.51296,-9.38847 -2.43622,16.27294 -12.22972,-11.00806 -4.45655,15.83927 -10.75361,-12.45405 -6.40659,15.15583 -9.10791,-13.70363 -8.2556,14.23336 -7.31857,-14.7371 -9.97442,13.08642 -5.41381,-15.53815 -11.53594,11.73311 -3.42367,-16.09416 -12.91552,10.19475 -1.37954,-16.39635 -14.09142,8.49562 0.68634,-16.43997 -15.04508,6.66251 2.7414,-16.22431 -15.76148,4.72432 4.75323,-15.75278 -16.22931,2.71163 6.6901,-15.03283 -16.4412,0.65617 8.52146,-14.0758 -16.3938,-1.40963 10.21843,-12.89679 -16.08785,-3.45319 11.75425,-11.51439 -15.52819,-5.44231 13.1047,-9.95039 -14.72365,-7.34559 14.24848,-8.22948 -13.68689,-9.13304 15.16755,-6.37877 -12.4343,-10.77644 15.84742,-4.42748 -10.9856,-12.2499 16.27737,-2.40636 -9.36366,-13.53016 16.45062,-0.34729 -7.59405,-14.59705 16.36443,1.71726 -5.70467,-15.43374 16.02016,3.75472 -3.72533,-16.02702 15.42324,5.73298 -1.68723,-16.36755 14.58309,7.62081 0.37747,-16.44995 13.51296,9.38847 2.43622,-16.27294 12.22972,11.00806 4.45655,-15.83927 10.75361,12.45405 6.40659,-15.15583 9.10791,13.70363 8.25561,-14.23336 7.31857,14.7371 9.97441,-13.08642 5.41382,15.53815 11.53593,-11.73311 3.42367,16.09416 12.91552,-10.19475 1.37955,16.39635 14.09141,-8.49562 -0.68634,16.43997 15.04508,-6.66251 -2.7414,16.22431 15.76148,-4.72432 -4.75323,15.75278 16.22931,-2.71163 -6.69009,15.03283 16.44119,-0.65617 -8.52145,14.0758 16.39379,1.40963 -10.21843,12.89679 16.08785,3.45319 -11.75425,11.51439 15.52819,5.44231 -13.1047,9.95039 14.72365,7.3456 -14.24848,8.22947 13.6869,9.13304 -15.16756,6.37877 z"
       transform="matrix(0.80009547,0,0,0.51434829,658.41275,260.7418)"
       inkscape:export-filename="/usr/home/zag/Work/perl/yapc/byperl2/pod6_pres/src/pipes.png"
       inkscape:export-xdpi="90"
       inkscape:export-ydpi="90" />
    <path
       sodipodi:type="star"
       style="fill:#ffb13b;fill-opacity:1;fill-rule:nonzero;stroke:#ff9015;stroke-width:6.37171316;stroke-linecap:square;stroke-linejoin:miter;stroke-miterlimit:4;stroke-opacity:1;stroke-dasharray:none;stroke-dashoffset:0;marker:none;visibility:visible;display:inline;overflow:visible;enable-background:accumulate"
       id="path6067-1"
       sodipodi:sides="50"
       sodipodi:cx="-603.23578"
       sodipodi:cy="534.51593"
       sodipodi:r1="138.32973"
       sodipodi:r2="124.08177"
       sodipodi:arg1="0.22082877"
       sodipodi:arg2="0.28366062"
       inkscape:flatsided="false"
       inkscape:rounded="0"
       inkscape:randomized="0"
       d="m -468.26522,564.81544 -15.84742,4.42748 10.9856,12.2499 -16.27737,2.40636 9.36366,13.53016 -16.45062,0.34729 7.59405,14.59705 -16.36443,-1.71725 5.70467,15.43373 -16.02015,-3.75472 3.72532,16.02702 -15.42324,-5.73298 1.68723,16.36755 -14.58309,-7.62081 -0.37747,16.44995 -13.51296,-9.38847 -2.43622,16.27294 -12.22972,-11.00806 -4.45655,15.83927 -10.75361,-12.45405 -6.40659,15.15583 -9.10791,-13.70363 -8.2556,14.23336 -7.31857,-14.7371 -9.97442,13.08642 -5.41381,-15.53815 -11.53594,11.73311 -3.42367,-16.09416 -12.91552,10.19475 -1.37954,-16.39635 -14.09142,8.49562 0.68634,-16.43997 -15.04508,6.66251 2.7414,-16.22431 -15.76148,4.72432 4.75323,-15.75278 -16.22931,2.71163 6.6901,-15.03283 -16.4412,0.65617 8.52146,-14.0758 -16.3938,-1.40963 10.21843,-12.89679 -16.08785,-3.45319 11.75425,-11.51439 -15.52819,-5.44231 13.1047,-9.95039 -14.72365,-7.34559 14.24848,-8.22948 -13.68689,-9.13304 15.16755,-6.37877 -12.4343,-10.77644 15.84742,-4.42748 -10.9856,-12.2499 16.27737,-2.40636 -9.36366,-13.53016 16.45062,-0.34729 -7.59405,-14.59705 16.36443,1.71726 -5.70467,-15.43374 16.02016,3.75472 -3.72533,-16.02702 15.42324,5.73298 -1.68723,-16.36755 14.58309,7.62081 0.37747,-16.44995 13.51296,9.38847 2.43622,-16.27294 12.22972,11.00806 4.45655,-15.83927 10.75361,12.45405 6.40659,-15.15583 9.10791,13.70363 8.25561,-14.23336 7.31857,14.7371 9.97441,-13.08642 5.41382,15.53815 11.53593,-11.73311 3.42367,16.09416 12.91552,-10.19475 1.37955,16.39635 14.09141,-8.49562 -0.68634,16.43997 15.04508,-6.66251 -2.7414,16.22431 15.76148,-4.72432 -4.75323,15.75278 16.22931,-2.71163 -6.69009,15.03283 16.44119,-0.65617 -8.52145,14.0758 16.39379,1.40963 -10.21843,12.89679 16.08785,3.45319 -11.75425,11.51439 15.52819,5.44231 -13.1047,9.95039 14.72365,7.3456 -14.24848,8.22947 13.6869,9.13304 -15.16756,6.37877 z"
       transform="matrix(0.80009547,0,0,0.51434829,656.40313,256.35574)"
       inkscape:export-filename="/usr/home/zag/Work/perl/yapc/byperl2/pod6_pres/src/pipes.png"
       inkscape:export-xdpi="90"
       inkscape:export-ydpi="90" />
    <text
       xml:space="preserve"
       style="font-size:20px;font-style:normal;font-weight:normal;text-align:center;text-anchor:middle;fill:#664444;fill-opacity:1;stroke:none;font-family:Bitstream Vera Sans"
       x="173.67055"
       y="544.92169"
       id="text17937-3"
       inkscape:export-filename="/usr/home/zag/Work/perl/yapc/byperl2/pod6_pres/src/pipes.png"
       inkscape:export-xdpi="90"
       inkscape:export-ydpi="90"><tspan
         sodipodi:role="line"
         x="173.67055"
         y="544.92169"
         id="tspan17941-7">издатель</tspan></text>
    <rect
       style="color:#000000;fill:#000000;fill-opacity:1;fill-rule:nonzero;stroke:#000000;stroke-width:2.5;stroke-linecap:square;stroke-linejoin:miter;stroke-miterlimit:4;stroke-opacity:1;stroke-dasharray:none;stroke-dashoffset:0;marker:none;visibility:visible;display:inline;overflow:visible;filter:url(#filter15647-0);enable-background:accumulate"
       id="rect14640-0"
       width="147.14285"
       height="80.000008"
       x="455.69742"
       y="499.50439"
       rx="18.571428"
       ry="17.142859" />
    <rect
       style="color:#000000;fill:#ffb13b;fill-opacity:1;fill-rule:nonzero;stroke:#ff9015;stroke-width:2.5;stroke-linecap:square;stroke-linejoin:miter;stroke-miterlimit:4;stroke-opacity:1;stroke-dasharray:none;stroke-dashoffset:0;marker:none;visibility:visible;display:inline;overflow:visible;enable-background:accumulate"
       id="rect4107-6"
       width="147.14285"
       height="80.000008"
       x="452.78098"
       y="494.68915"
       rx="18.571428"
       ry="17.142859" />
    <text
       xml:space="preserve"
       style="font-size:20px;font-style:normal;font-weight:normal;text-align:center;text-anchor:middle;fill:#664444;fill-opacity:1;stroke:none;font-family:Bitstream Vera Sans"
       x="525.0498"
       y="539.83588"
       id="text17961-3"><tspan
         sodipodi:role="line"
         x="525.0498"
         y="539.83588"
         id="tspan17965-8">читатель</tspan></text>
    <text
       xml:space="preserve"
       style="font-size:20px;font-style:normal;font-weight:normal;text-align:center;text-anchor:middle;fill:#664444;fill-opacity:1;stroke:none;font-family:Arial"
       x="171.55281"
       y="520.56238"
       id="text6189"><tspan
         sodipodi:role="line"
         x="171.55281"
         y="520.56238"
         id="tspan15911">писатель</tspan></text>
    <g
       id="g3642"
       transform="matrix(0,1,1,0,-58.840451,229.34542)"
       inkscape:export-filename="/usr/home/zag/Work/perl/yapc/byperl2/pod6_pres/src/pipes.png"
       inkscape:export-xdpi="90"
       inkscape:export-ydpi="90">
      <path
         inkscape:connector-curvature="0"
         id="path3644"
         d="m 304.97187,405.761 0,33.178"
         style="fill:none;stroke:#664444;stroke-width:1px;stroke-linecap:butt;stroke-linejoin:miter;stroke-opacity:1" />
      <path
         inkscape:connector-curvature="0"
         id="path3646"
         d="m 304.95451,442.87665 -7.02984,-16.33955 14.84279,0.0187 -7.81295,16.32087 z"
         style="fill:#664444;fill-opacity:1;fill-rule:evenodd;stroke:#664444;stroke-width:1px;stroke-linecap:butt;stroke-linejoin:miter;stroke-opacity:1" />
    </g>
    <g
       inkscape:export-ydpi="90"
       inkscape:export-xdpi="90"
       inkscape:export-filename="/usr/home/zag/Work/perl/yapc/byperl2/pod6_pres/src/pipes.png"
       transform="matrix(0,1,-1,0,784.74646,247.52817)"
       id="g4022">
      <path
         style="fill:none;stroke:#664444;stroke-width:1px;stroke-linecap:butt;stroke-linejoin:miter;stroke-opacity:1"
         d="m 304.97187,405.761 0,33.178"
         id="path4024"
         inkscape:connector-curvature="0" />
      <path
         style="fill:#664444;fill-opacity:1;fill-rule:evenodd;stroke:#664444;stroke-width:1px;stroke-linecap:butt;stroke-linejoin:miter;stroke-opacity:1"
         d="m 304.95451,442.87665 -7.02984,-16.33955 14.84279,0.0187 -7.81295,16.32087 z"
         id="path4026"
         inkscape:connector-curvature="0" />
    </g>
  </g>
</svg>
